<svg width="529" height="208" viewBox="0 0 529 208" fill="white" xmlns="http://www.w3.org/2000/svg">
<path d="M132 0.273352C145.78 9.40335 147.16 38.0334 150.24 53.1334C153.33 68.3334 156.35 83.5534 159.1 98.8234C165.49 148.263 165.49 148.263 187 191.273C190.35 192.173 192.72 192.733 196.04 191.543C207.68 184.023 211.83 159.843 215.55 147.253C216.39 144.393 217.25 141.553 218.1 138.703C220.16 131.843 222.2 124.973 224.23 118.103C228.66 103.093 233.63 88.5734 240 74.2734C240.46 73.2334 240.46 73.2334 240.93 72.1634C244.9 63.3434 249.82 55.7134 256 48.2734C256.56 47.5834 257.13 46.8934 257.71 46.1834C262.96 40.3434 270.12 36.0734 277.9 34.7934C289.08 34.4534 298.15 38.8534 306.25 46.3634C310.58 50.8834 314.08 55.7434 317.27 61.1134C317.85 62.0934 317.85 62.0934 318.45 63.0834C322.7 70.3234 326.43 77.8034 330.12 85.3334C330.79 86.6934 331.47 88.0434 332.14 89.4034C333.45 92.0634 334.77 94.7234 336.08 97.3834C336.56 98.3534 336.56 98.3534 337.05 99.3334C337.68 100.633 338.32 101.923 338.95 103.213C347.07 119.723 355.76 136.843 373 145.273C379.74 147.523 385.99 146.563 392.41 143.703C400.38 139.293 406.62 132.713 412.94 126.273C424.38 114.633 436.12 104.893 453.12 104.713C460.09 104.823 465.89 105.723 472 109.273C472.67 109.653 473.34 110.033 474.04 110.413C478.61 113.253 482.69 116.653 486.83 120.083C500.54 131.463 511.26 135.033 529 136.273C529 140.233 529 144.193 529 148.273C508.05 148.953 493.97 144.713 478.09 130.633C469.14 122.753 461.68 118.783 449.62 118.953C435.51 120.203 424.09 134.043 414.75 143.653C409.64 148.893 404.67 153.093 398 156.273C397.01 156.753 397.01 156.753 396.01 157.253C387.15 161.313 376.63 161.793 367.38 158.773C340.67 147.693 328.17 115.653 316.75 91.2734C306.62 67.9734 306.62 67.9734 288.44 51.2734C282.8 49.6334 278.86 49.5834 273.56 52.1534C247.45 68.0834 239.72 116.003 232.16 142.773C217.04 196.103 217.04 196.103 199.56 206.273C193.94 207.853 189.27 208.103 183.75 206.083C160.57 190.803 154.9 150.103 149.76 125.203C148.01 116.333 146.63 107.383 145.19 98.4534C141.19 73.7534 136.91 48.8734 130.37 24.6934C129.47 21.3734 129 18.7534 129 15.2734C128.34 15.2734 127.68 15.2734 127 15.2734C126.87 16.2834 126.75 17.2934 126.62 18.3234C126.02 22.1234 125.15 25.6934 124.14 29.4034C121.6 39.2134 120.15 49.1334 118.69 59.1534C118.39 61.1434 118.09 63.1434 117.79 65.1434C115.7 79.1434 113.75 93.1634 111.82 107.173C108.57 130.713 105.24 154.073 99.44 177.153C99.16 178.283 98.88 179.413 98.59 180.573C97 186.593 95.5 191.773 91 196.273C88.75 196.713 88.75 196.713 86 196.273C77.76 189.033 76.3 176.123 74.38 165.833C74.02 163.973 74.02 163.973 73.65 162.063C68.92 136.903 65.07 111.553 61 86.2734C60.84 87.2834 60.68 88.2934 60.51 89.3434C59.9 93.1734 59.28 97.0034 58.66 100.833C58.39 102.473 58.13 104.113 57.87 105.763C52.88 137.143 52.88 137.143 46.71 143.063C38.26 149.053 27.25 147.613 17.44 147.463C15.74 147.443 14.05 147.433 12.36 147.423C8.24 147.383 4.12 147.333 0 147.273C0 143.643 0 140.013 0 136.273C1.14 136.253 1.14 136.253 2.3 136.233C5.81 136.153 9.31 136.053 12.81 135.963C14.01 135.933 15.2 135.913 16.44 135.893C29.14 135.813 29.14 135.813 40 130.273C40.55 128.243 40.55 128.243 40.86 125.843C41 124.893 41.15 123.953 41.29 122.983C41.44 121.943 41.59 120.903 41.75 119.833C42.1 117.573 42.45 115.303 42.8 113.043C42.99 111.803 43.18 110.563 43.37 109.293C44.4 102.643 45.5 96.0034 46.62 89.3734C46.87 87.8734 47.12 86.3633 47.36 84.8633C51.67 58.4433 51.67 58.4434 57 51.2734C60.69 50.4634 60.69 50.4634 64 50.2734C70.47 60.0134 71.83 73.7234 73.88 85.0234C74.13 86.4034 74.38 87.7734 74.64 89.1534C77.2 103.133 79.61 117.143 81.97 131.153C82.72 135.643 83.49 140.123 84.27 144.603C84.64 146.763 85.01 148.923 85.38 151.083C85.54 152.043 85.71 153.003 85.88 153.993C86.64 158.473 87.2 162.703 87 167.273C87.66 167.273 88.32 167.273 89 167.273C89.04 166.693 89.07 166.113 89.11 165.513C89.74 157.103 91.19 148.893 92.67 140.613C95.37 125.333 97.83 110.023 100.07 94.6734C102.29 79.4034 104.58 64.1534 107.19 48.9534C107.47 47.2834 107.75 45.6234 108.03 43.9634C109.45 35.4934 111.15 27.1934 113.55 18.9434C113.75 18.2434 113.96 17.5434 114.17 16.8234C116.05 10.6434 118.44 6.00335 122.88 1.27335C126.11 -0.246648 128.48 -0.156648 132 0.273352Z" fill="white"/>
</svg>
